<?xml version="1.0" standalone="no"?>
<svg xmlns="http://www.w3.org/2000/svg" viewBox="0 0 157.112 53" width="157.112" height="53"><rect fill="none" stroke="#d6af69" stroke-width="3" width="154.112" height="50" x="1.5" y="1.5"></rect><g fill="#4d0606" color="#4d0606" transform="translate(12, 12) scale(0.0511555)"><svg width="566.9" height="566.9" x="0.0" y="0.0" viewBox="0 0 566.9 566.9"><path d="M419.2,336.6c0,0-8.2-80.6-70.6-123.8l5.3-14.6c0,0,38.5-4.7,77.1,8.8c-36.2-30.9-66-36.8-66-36.8l1.2-18.1  c0,0,24.4-9.9,21.5-32c-1.1-8.4-6.4-15.8-14.2-19.2C353.8,92,341,116.5,341,116.5s-85,13.7-106.7,70l-184-91.6l182.2,96.8  c-1.3,4.3-2.3,8.9-2.8,13.8c0,0,3.4-4.4,9.1-10.4l9,4.8l2.4-5.4l-7.3-3.6c13.5-13.2,35.4-30.1,57.2-27.4c0,0-9,12.2-15.2,28.1  L271,208l8.2,10.5c0,7.2,1.6,14.2,5.4,20.5c0.1,0.2-0.2,0.4-0.3,0.2l-20.7-24l-21.8,18.3c0,0,207.1,202.4,228.7,238.6  c13.6-1.7,18.7-13.4,18.7-13.4l-143-148.3c0,0,4.8-16.1-1-28.1c43.2,41.2,152.6,166.3,152.8,170.5c15.3-2.1,18.7-15.8,18.7-15.8  L419.2,336.6z M375,114.4l11.2,6.1c1.7,9.6-3.8,16.9-3.8,16.9h-5L371,122c-7-9.6-21.9-11.7-21.9-11.7  C364.3,108.8,375,114.4,375,114.4z M352.6,261.9c29.8,8.8,52.2,60.4,52.2,60.4S373.4,285.5,352.6,261.9z"></path></svg></g><line x1="51.5" y1="0" x2="51.5" y2="100%" stroke="#d6af69" stroke-width="3"></line><path fill="#4d0606" fill-rule="nonzero" d="M2.11 18.12L5.59 1.82Q3.98 2.47 3.11 3.80Q2.23 5.14 2.23 7.06L2.23 7.06Q2.23 7.94 2.40 8.29Q2.57 8.64 2.57 8.69L2.57 8.69Q1.27 8.69 0.64 8.15Q0 7.61 0 6.36L0 6.36Q0 4.82 1.26 3.37Q2.52 1.92 4.49 1.02Q6.46 0.12 8.42 0.12L8.42 0.12Q8.76 0.12 9.38 0.17L9.38 0.17L5.57 18.12L2.11 18.12ZM6.67 24.12L10.68 5.23L14.14 5.23L13.75 7.03Q14.95 6 16.56 6L16.56 6Q17.90 6 18.70 6.89Q19.49 7.78 19.49 9.79L19.49 9.79Q19.49 11.69 18.94 13.62Q18.38 15.55 17.06 16.91Q15.74 18.26 13.58 18.26L13.58 18.26Q12.05 18.26 11.54 17.40L11.54 17.40L10.30 23.26L6.67 24.12ZM12.84 16.18Q13.99 16.18 14.75 15.10Q15.50 14.02 15.85 12.52Q16.20 11.02 16.20 9.72L16.20 9.72Q16.20 7.73 15 7.73L15 7.73Q14.57 7.73 14.12 8.04Q13.68 8.35 13.34 8.90L13.34 8.90L11.93 15.62Q12.12 16.18 12.84 16.18L12.84 16.18ZM23.52 18.26Q21.74 18.26 20.76 17.34Q19.78 16.42 19.78 14.45L19.78 14.45Q19.78 12.79 20.42 10.80Q21.07 8.81 22.54 7.36Q24 5.90 26.26 5.90L26.26 5.90Q28.90 5.90 28.90 8.21L28.90 8.21Q28.90 9.55 28.13 10.68Q27.36 11.81 26.09 12.49Q24.82 13.18 23.38 13.27L23.38 13.27Q23.33 13.99 23.33 14.23L23.33 14.23Q23.33 15.41 23.74 15.83Q24.14 16.25 25.06 16.25L25.06 16.25Q26.35 16.25 27.28 15.65Q28.20 15.05 29.30 13.82L29.30 13.82L30.12 13.82Q27.46 18.26 23.52 18.26L23.52 18.26ZM23.57 12.12Q24.46 12.07 25.26 11.50Q26.06 10.92 26.56 10.03Q27.05 9.14 27.05 8.16L27.05 8.16Q27.05 7.18 26.45 7.18L26.45 7.18Q25.58 7.18 24.76 8.69Q23.93 10.20 23.57 12.12L23.57 12.12ZM28.39 18.12L30.94 6.12L34.39 6.12L34.08 7.61Q34.90 6.89 35.56 6.50Q36.22 6.12 36.98 6.12L36.98 6.12Q37.75 6.12 38.20 6.65Q38.64 7.18 38.64 7.92L38.64 7.92Q38.64 8.62 38.18 9.14Q37.73 9.67 36.91 9.67L36.91 9.67Q36.38 9.67 36.20 9.42Q36.02 9.17 35.93 8.69L35.93 8.69Q35.86 8.38 35.78 8.23Q35.71 8.09 35.52 8.09L35.52 8.09Q35.02 8.09 34.67 8.29Q34.32 8.50 33.77 9L33.77 9L31.85 18.12L28.39 18.12ZM44.21 18.55Q42.70 18.55 41.54 18.02Q40.39 17.50 39.77 16.55Q39.14 15.60 39.14 14.35L39.14 14.35Q39.14 13.30 39.59 12.43Q40.03 11.57 40.79 11.06Q41.54 10.56 42.46 10.56L42.46 10.56Q43.30 10.56 43.87 10.98Q44.45 11.40 44.59 12.14L44.59 12.14Q43.34 12.14 42.60 12.80Q41.86 13.46 41.86 14.59L41.86 14.59Q41.86 15.62 42.48 16.25Q43.10 16.87 44.14 16.87L44.14 16.87Q45.41 16.87 46.24 16.02Q47.06 15.17 47.06 13.87L47.06 13.87Q47.06 12.74 46.44 11.74Q45.82 10.73 44.57 9.29L44.57 9.29Q43.27 7.80 42.61 6.73Q41.95 5.66 41.95 4.39L41.95 4.39Q41.95 3.14 42.65 2.15Q43.34 1.15 44.57 0.58Q45.79 0 47.33 0L47.33 0Q49.27 0 50.44 0.91Q51.60 1.82 51.60 3.36L51.60 3.36Q51.60 4.37 51.10 4.99Q50.59 5.62 49.78 5.62L49.78 5.62Q48.86 5.62 48.31 4.87L48.31 4.87Q48.77 4.54 49.03 3.98Q49.30 3.43 49.30 2.83L49.30 2.83Q49.30 2.06 48.84 1.61Q48.38 1.15 47.59 1.15L47.59 1.15Q46.63 1.15 46.02 1.84Q45.41 2.52 45.41 3.58L45.41 3.58Q45.41 4.54 45.96 5.36Q46.51 6.19 47.69 7.49L47.69 7.49Q48.65 8.52 49.24 9.26Q49.82 10.01 50.24 10.98Q50.66 11.95 50.66 13.08L50.66 13.08Q50.66 14.62 49.81 15.86Q48.96 17.11 47.48 17.83Q46.01 18.55 44.21 18.55L44.21 18.55ZM61.03 18.26Q59.54 18.26 58.78 17.56Q58.01 16.85 58.01 15.53L58.01 15.53Q58.01 14.95 58.15 14.28L58.15 14.28L58.34 13.34Q58.44 12.94 58.44 12.46L58.44 12.46Q58.44 11.30 57.58 11.30L57.58 11.30Q57.19 11.30 56.77 11.52Q56.35 11.74 55.80 12.19L55.80 12.19L54.55 18.12L51.10 18.12L54.58 1.80L58.13 1.32L56.33 9.77L60.96 6.12L63.34 6.12L58.54 9.46Q58.90 9.36 59.33 9.36L59.33 9.36Q60.62 9.36 61.30 10.15Q61.97 10.94 61.97 12.17L61.97 12.17Q61.97 12.67 61.87 13.08L61.87 13.08L61.61 14.28Q61.49 14.71 61.49 15.05L61.49 15.05Q61.49 15.94 62.42 15.94L62.42 15.94Q63.14 15.94 63.58 15.42Q64.01 14.90 64.44 13.82L64.44 13.82L65.45 13.82Q63.96 18.26 61.03 18.26L61.03 18.26ZM68.18 24.12Q67.03 24.12 66.26 23.52Q65.50 22.92 65.50 21.79L65.50 21.79Q65.50 20.42 66.60 19.60Q67.70 18.77 69.41 18.22L69.41 18.22L69.70 16.92Q69 17.69 68.28 17.98Q67.56 18.26 66.82 18.26L66.82 18.26Q65.66 18.26 64.96 17.54Q64.25 16.82 64.25 15.38L64.25 15.38Q64.25 14.78 64.44 13.82L64.44 13.82L66.07 6.12L69.53 6.12L67.80 14.28Q67.73 14.57 67.73 14.88L67.73 14.88Q67.73 15.94 68.45 15.94L68.45 15.94Q69.07 15.94 69.55 15.40Q70.03 14.86 70.32 13.97L70.32 13.97L72 6.12L75.46 6.12L73.08 17.26Q74.23 16.87 74.93 16.10Q75.62 15.34 76.10 13.82L76.10 13.82L77.11 13.82Q76.46 15.96 75.36 16.96Q74.26 17.95 72.86 18.31L72.86 18.31L72.50 20.04Q72.02 22.37 70.85 23.24Q69.67 24.12 68.18 24.12L68.18 24.12ZM67.63 22.25Q68.04 22.25 68.42 21.70Q68.81 21.14 69.02 20.11L69.02 20.11L69.17 19.42Q66.82 20.28 66.82 21.46L66.82 21.46Q66.82 21.77 67.03 22.01Q67.25 22.25 67.63 22.25L67.63 22.25Z" transform="translate(65 17.44)"></path></svg>